<?xml version="1.0" encoding="UTF-8" standalone="no"?>
<!-- Created with Inkscape (http://www.inkscape.org/) -->

<svg
   width="210mm"
   height="297mm"
   viewBox="0 0 210 297"
   version="1.1"
   id="svg5"
   inkscape:version="1.1 (c68e22c387, 2021-05-23)"
   sodipodi:docname="Icon.svg"
   xmlns:inkscape="http://www.inkscape.org/namespaces/inkscape"
   xmlns:sodipodi="http://sodipodi.sourceforge.net/DTD/sodipodi-0.dtd"
   xmlns="http://www.w3.org/2000/svg"
   xmlns:svg="http://www.w3.org/2000/svg">
  <sodipodi:namedview
     id="namedview7"
     pagecolor="#505050"
     bordercolor="#ffffff"
     borderopacity="1"
     inkscape:pageshadow="0"
     inkscape:pageopacity="0"
     inkscape:pagecheckerboard="1"
     inkscape:document-units="mm"
     showgrid="false"
     inkscape:zoom="0.67081229"
     inkscape:cx="396.53418"
     inkscape:cy="561.25984"
     inkscape:window-width="1920"
     inkscape:window-height="1009"
     inkscape:window-x="1912"
     inkscape:window-y="1072"
     inkscape:window-maximized="1"
     inkscape:current-layer="layer1" />
  <defs
     id="defs2" />
  <g
     inkscape:label="Ebene 1"
     inkscape:groupmode="layer"
     id="layer1">
    <path
       style="fill:#000000;stroke-width:0.264583;stroke-miterlimit:4;stroke-dasharray:none;stroke-dashoffset:0"
       id="path1784"
       d="m 41.062068,214.70474 c 2.908631,-6.96791 5.325475,-14.1212 7.800927,-21.25013 3.047341,-8.80307 5.863685,-17.70442 9.567759,-26.26406 0.778614,-1.79928 1.640134,-3.56153 2.460202,-5.34229 4.729432,-9.58145 9.948571,-18.90848 14.902349,-28.37347 4.359257,-8.34451 8.172622,-16.9554 11.678322,-25.68809 1.890331,-4.81047 3.76433,-9.634437 5.181783,-14.608733 0.557268,-1.908479 1.039256,-3.847293 1.713039,-5.720202 0.241229,-0.670538 0.518903,-1.327517 0.764114,-1.996612 0.619697,-1.784109 1.394928,-3.508454 2.192793,-5.219017 0.859212,-1.599922 1.824352,-3.138466 2.714924,-4.719169 0.61448,-1.068673 0.29952,-0.559382 0.93952,-1.531165 0,0 -3.5685,1.569368 -3.5685,1.569368 v 0 c -0.613621,0.987774 -0.306655,0.474388 -0.917779,1.542021 -0.921067,1.575803 -1.87307,3.135148 -2.712418,4.757158 -0.774483,1.724136 -1.560335,3.446132 -2.163373,5.239761 -0.915358,2.531152 -1.72469,5.093792 -2.384838,7.705322 -1.357249,4.909413 -3.125139,9.691138 -4.933011,14.449768 -3.443216,8.73043 -7.259383,17.31124 -11.624037,25.62435 -4.921306,9.44801 -10.077979,18.77458 -14.779048,28.33619 -0.81824,1.78537 -1.675702,3.55327 -2.454717,5.3561 -3.70676,8.57832 -6.573877,17.48181 -9.618969,26.30594 -2.549372,7.24342 -5.055307,14.51388 -8.315764,21.47765 0,0 3.556722,-1.65069 3.556722,-1.65069 z" />
    <path
       style="fill:#000000;stroke-width:0.264583;stroke-miterlimit:4;stroke-dasharray:none;stroke-dashoffset:0"
       id="path1786"
       d="m 112.45717,220.67207 c 3.31542,-7.33012 6.40757,-14.75782 9.57957,-22.15042 3.07895,-7.33022 6.14311,-14.6699 8.86758,-22.14105 1.50377,-4.12368 1.96066,-5.56716 3.33802,-9.66667 2.35909,-6.92655 4.34837,-13.9702 6.42934,-20.98311 1.41783,-4.69434 2.50204,-9.47921 3.64793,-14.24465 0.64696,-2.71688 1.35656,-5.43293 2.27907,-8.07193 0.29675,-0.84892 1.028,-2.6237 1.36345,-3.45142 1.66011,-3.83066 3.58882,-7.53369 5.61325,-11.18225 2.11581,-3.60326 3.81378,-7.41932 5.50071,-11.234875 1.3398,-3.149668 2.67925,-6.307118 3.7236,-9.569688 0.491,-1.444963 0.99301,-2.884998 1.43062,-4.347336 0.23264,-0.893565 0.50294,-1.773929 0.84565,-2.630049 0.47939,-0.681971 0.65247,-1.515454 0.98989,-2.265193 0.0517,-0.124949 0.10334,-0.249899 0.15501,-0.374848 0,0 -3.58822,1.654968 -3.58822,1.654968 v 0 c -0.051,0.124048 -0.1019,0.248095 -0.15284,0.372142 -0.29837,0.774346 -0.58706,1.548972 -0.99264,2.276224 -0.32875,0.8627 -0.55829,1.759675 -0.80787,2.647638 -0.43419,1.444714 -0.91352,2.874237 -1.36944,4.312036 -1.00956,3.234266 -2.29283,6.371891 -3.63342,9.481272 -1.6925,3.808679 -3.42185,7.603009 -5.52252,11.209149 -2.01202,3.67297 -3.96059,7.38544 -5.61861,11.23421 -1.50863,3.74443 -2.72592,7.59177 -3.56089,11.54648 -1.135,4.75372 -2.24831,9.51531 -3.61519,14.20928 -1.9942,6.97488 -3.89896,13.97947 -6.20245,20.86114 -1.25351,3.79734 -1.89245,5.81455 -3.2612,9.61757 -2.68989,7.47377 -5.74195,14.8095 -8.85293,22.11577 -3.27213,7.52192 -6.46221,15.08809 -10.15152,22.41867 0,0 3.56605,-1.64306 3.56605,-1.64306 z" />
    <path
       style="fill:#000000;stroke-width:0.264583;stroke-miterlimit:4;stroke-dasharray:none;stroke-dashoffset:0"
       id="path1788"
       d="m 94.33862,90.661362 c 3.586689,-0.427866 7.19441,-0.56659 10.8019,-0.681347 6.52826,-0.142711 13.05894,-0.203269 19.58851,-0.146614 5.43215,0.07577 10.84907,0.51779 16.25935,0.977635 2.89894,0.169529 5.78774,0.414351 8.6728,0.745683 0.53265,0.06075 1.06531,0.1215 1.59796,0.182251 0,0 3.10379,-2.203291 3.10379,-2.203291 v 0 c -0.5366,-0.05732 -1.0732,-0.114644 -1.6098,-0.171966 -2.8812,-0.329044 -5.76088,-0.682879 -8.66234,-0.7721 -5.49093,-0.342553 -10.98186,-0.726601 -16.48351,-0.844444 -6.5015,-0.08978 -13.00418,-0.05094 -19.50519,0.06879 -3.5365,0.08007 -7.07338,0.164282 -10.59672,0.496046 0,0 -3.16675,2.349355 -3.16675,2.349355 z" />
    <path
       style="fill:#000000;stroke-width:0.264583;stroke-miterlimit:4;stroke-dasharray:none;stroke-dashoffset:0"
       id="path1790"
       d="m 77.267778,133.29372 c 8.546279,0.5503 17.112855,0.19628 25.662312,-0.0749 5.92971,-0.19249 11.85633,-0.4678 17.78593,-0.66233 2.012,-0.11344 4.01782,-0.0479 6.02589,0.0864 1.50724,0.0891 2.9984,0.33891 4.4984,0.50294 1.45947,0.1314 2.9224,0.14589 4.38343,0.26424 0.4599,0.0565 0.91979,0.11304 1.37969,0.16956 0,0 3.13043,-2.21256 3.13043,-2.21256 v 0 c -0.45745,-0.0639 -0.91491,-0.12771 -1.37236,-0.19157 -1.4395,-0.15761 -2.87633,-0.2336 -4.32154,-0.30545 -1.51716,-0.14096 -3.02126,-0.39735 -4.54228,-0.48794 -2.0333,-0.13577 -4.0636,-0.26197 -6.10048,-0.0836 -6.06884,0.29575 -12.13056,0.72991 -18.20232,0.97013 -8.366134,0.30853 -16.791243,0.69852 -25.127705,-0.29949 0,0 -3.199397,2.3245 -3.199397,2.3245 z" />
    <path
       style="fill:#000000;stroke-width:0.264583;stroke-miterlimit:4;stroke-dasharray:none;stroke-dashoffset:0"
       id="path1792"
       d="m 61.490885,173.13037 c 0.274934,-0.005 0.550191,-7.9e-4 0.824799,-0.0151 2.949454,-0.15301 5.887498,-0.44118 8.838989,-0.58627 4.318777,-0.21232 6.775939,-0.26438 11.158963,-0.39658 9.085077,-0.23214 18.173294,-0.29954 27.260954,-0.26077 2.13644,0.0157 4.26465,0.19782 6.39176,0.37603 0.77624,0.0691 1.55535,0.0864 2.33416,0.0941 0.74955,0.0635 1.46746,-0.0745 2.19112,-0.24719 0.9631,-0.23761 1.94914,-0.35566 2.93485,-0.44934 0,0 3.1613,-2.34042 3.1613,-2.34042 v 0 c -0.99249,0.0843 -1.98255,0.19895 -2.96056,0.3921 -0.69893,0.18309 -1.3956,0.38187 -2.1249,0.32216 -0.77822,-0.004 -1.55683,-0.0109 -2.33368,-0.0621 -2.20555,-0.14143 -4.41233,-0.28376 -6.62434,-0.24572 -9.18866,0.14994 -18.377749,0.27803 -27.565572,0.474 -5.078206,0.11775 -10.158899,0.21806 -15.234639,0.42287 -1.424086,0.0575 -2.845634,0.17723 -4.270433,0.21277 -0.261091,0.007 -0.522248,-0.01 -0.783373,-0.0151 0,0 -3.199398,2.3245 -3.199398,2.3245 z" />
    <path
       style="fill:#000000;stroke-width:0.264583;stroke-miterlimit:4;stroke-dasharray:none;stroke-dashoffset:0"
       id="path1794"
       d="m 48.40929,206.68215 c 3.807894,0.32818 7.623593,0.55967 11.435599,0.83585 7.835418,0.46798 15.634401,1.34997 23.42104,2.31747 5.707603,0.73046 11.451344,1.11081 17.195171,1.41099 1.80008,0.0927 3.60156,0.15378 5.40405,0.15268 0.97785,-0.005 1.95568,-0.0102 2.93354,-0.0117 0,0 3.18156,-2.31319 3.18156,-2.31319 v 0 c -0.97919,0.005 -1.95838,0.009 -2.93757,0.0148 -1.84106,0.0103 -3.68235,0.0156 -5.52279,-0.0453 -5.797609,-0.18757 -11.591275,-0.54401 -17.349672,-1.2649 -7.780231,-0.93449 -15.569811,-1.79101 -23.386589,-2.36087 -3.714398,-0.31664 -7.433492,-0.60042 -11.137982,-1.01774 0,0 -3.236357,2.2819 -3.236357,2.2819 z" />
  </g>
</svg>
